<?xml version="1.0" encoding="UTF-8"?>
<svg width="35px" height="24px" viewBox="0 0 35 24" version="1.1" xmlns="http://www.w3.org/2000/svg" xmlns:xlink="http://www.w3.org/1999/xlink">
    <!-- Generator: Sketch 51 (57462) - http://www.bohemiancoding.com/sketch -->
    <title>arnold-clark-logo-white</title>
    <desc>Created with Sketch.</desc>
    <defs></defs>
    <g id="Page-1" stroke="none" stroke-width="1" fill="none" fill-rule="evenodd">
        <g id="arnold-clark-logo-white" fill="#2D3737" fill-rule="nonzero">
            <path d="M20.314,13.973 L16.658,13.973 C16.658,13.973 18.67,9.277 19.511,7.447 C19.901,6.657 20.741,6.087 21.615,6.087 L22.093,6.087 L20.315,13.973 L20.314,13.973 Z M15.85,7.10542736e-15 C13.07,7.10542736e-15 10.412,1.827 9.2,4.347 L3.90798505e-14,23.867 L10.826,23.867 C11.702,23.867 12.541,23.285 12.913,22.487 L14.076,19.824 L19.016,19.82 L18.118,23.864 L29.281,23.866 L29.281,23.864 C30.041,23.864 30.763,23.247 30.891,22.487 L35.03,7.10542736e-15 L15.85,7.10542736e-15 Z" id="Shape"></path>
        </g>
    </g>
</svg>